PathFileType	4	(X/Y/Z)	s09c0402.trc
DataRate	CameraRate	NumFrames	NumMarkers	Units	OrigDataRate	OrigDataStartFrame	OrigNumFrames
200	200	4	50	mm	200	250	2000
Frame#	Time	racr			lacr			c7			jug			rlel			rdr			llel			ldr			s2			lic			ric			lasi			rasi			rpsi			lpsi			rgt			lgt			rth1			rth2			rth3			rth4			rlfc			rmfc			rsh1			rsh2			rsh3			rsh4			rlmal			rmmal			rcal			rtoe			rmt5			lth1			lth2			lth4			lth3			llfc			lmfc			llmal			lmmal			lcal			lmt5			lsh1			lsh2			lsh3			lsh4			ltoe			SBIKE			LBIKE			RBIKE			
		X1	Y1	Z1	X2	Y2	Z2	X3	Y3	Z3	X4	Y4	Z4	X5	Y5	Z5	X6	Y6	Z6	X7	Y7	Z7	X8	Y8	Z8	X9	Y9	Z9	X10	Y10	Z10	X11	Y11	Z11	X12	Y12	Z12	X13	Y13	Z13	X14	Y14	Z14	X15	Y15	Z15	X16	Y16	Z16	X17	Y17	Z17	X18	Y18	Z18	X19	Y19	Z19	X20	Y20	Z20	X21	Y21	Z21	X22	Y22	Z22	X23	Y23	Z23	X24	Y24	Z24	X25	Y25	Z25	X26	Y26	Z26	X27	Y27	Z27	X28	Y28	Z28	X29	Y29	Z29	X30	Y30	Z30	X31	Y31	Z31	X32	Y32	Z32	X33	Y33	Z33	X34	Y34	Z34	X35	Y35	Z35	X36	Y36	Z36	X37	Y37	Z37	X38	Y38	Z38	X39	Y39	Z39	X40	Y40	Z40	X41	Y41	Z41	X42	Y42	Z42	X43	Y43	Z43	X44	Y44	Z44	X45	Y45	Z45	X46	Y46	Z46	X47	Y47	Z47	X48	Y48	Z48	X49	Y49	Z49	X50	Y50	Z50	
250	1.2500	527.840774	1311.722574	-96.123159	533.430538	1283.236239	-410.189936	506.646904	1321.952489	-246.256620	493.498769	1186.506264	-246.616560	506.550544	1073.927552	22.968563	691.113088	911.288766	-32.854078	457.602598	1028.481279	-519.322103	672.212204	909.061291	-462.151108	26.517845	1131.249498	-234.158098	161.457303	1126.194632	-381.526815	179.330601	1118.892659	-93.209406	201.347833	1064.339936	-363.498804	219.186059	1061.381263	-113.999594	61.047979	1158.211705	-174.329097	53.722770	1168.477569	-284.474415	148.365240	974.793939	-52.708683	121.339562	1003.655148	-429.530679	237.789217	867.488064	-69.941862	306.628748	816.076606	-85.297369	336.000747	732.714875	-97.409166	328.838715	834.509342	-108.365859	367.024136	635.951441	-135.035683	335.883444	624.669064	-230.505166	278.372715	587.194477	-95.411366	221.660916	517.522272	-102.292386	139.968733	486.562734	-92.486396	235.753892	499.527080	-134.615929	58.208605	426.131012	-84.676702	57.517372	435.651505	-163.841471	-34.953550	419.041101	-118.951768	212.144147	326.047161	-127.813890	131.115426	336.714811	-60.526790	229.596820	916.493099	-425.127861	310.759010	890.960802	-416.852338	329.926021	919.709308	-400.931686	370.834172	823.537389	-411.765727	441.824465	747.090797	-390.833785	455.315607	733.448399	-292.489319	355.052203	390.917133	-409.786955	370.025697	401.653032	-334.771794	284.417534	349.535183	-374.903330	454.910760	312.441511	-434.072281	418.310414	649.883235	-416.617662	420.995761	562.957337	-409.878969	378.116308	485.062542	-412.173107	444.326063	559.080770	-378.225077	544.172149	333.214580	-363.772254	-64.787853	852.426533	-240.712113	21.134218	83.888480	-442.019648	21.112549	83.934552	-43.945818	
251	1.2550	527.889452	1311.683315	-96.097307	533.462698	1283.220013	-410.184897	506.697959	1321.944105	-246.170124	493.576736	1186.466669	-246.640192	506.566520	1073.909321	23.011238	691.107847	911.259577	-32.861872	457.625828	1028.489202	-519.328624	672.185466	909.050923	-462.146692	26.518554	1131.261867	-234.136957	161.495480	1126.230426	-381.512376	179.383284	1118.848382	-93.190698	201.383910	1064.331339	-363.461274	219.202443	1061.348406	-114.010380	61.075829	1158.193666	-174.314309	53.751833	1168.484183	-284.462220	148.388893	974.769766	-52.710371	121.371148	1003.674279	-429.516063	237.810382	867.497278	-69.943070	306.627043	816.089346	-85.273240	335.986653	732.701979	-97.385705	328.845932	834.507974	-108.379742	367.020851	635.941841	-135.045373	335.863076	624.660123	-230.521300	278.348418	587.188504	-95.406895	221.655074	517.512318	-102.294853	139.945390	486.570876	-92.489770	235.752265	499.504334	-134.621519	58.206614	426.115781	-84.662073	57.517380	435.651505	-163.841471	-34.964400	419.027027	-118.954569	212.157594	326.044933	-127.846906	131.098803	336.715554	-60.521358	229.600672	916.540816	-425.134171	310.777461	890.999641	-416.841221	329.938653	919.744224	-400.929571	370.868196	823.586710	-411.763311	441.867660	747.143691	-390.846227	455.329235	733.494755	-292.505840	355.104918	390.966306	-409.798312	370.070164	401.688344	-334.802818	284.463538	349.592042	-374.917058	454.920811	312.445002	-434.082653	418.358922	649.929342	-416.603993	421.042723	562.993234	-409.874347	378.161326	485.118564	-412.177283	444.383954	559.163535	-378.224436	544.194108	333.165960	-363.759140	-64.777284	852.424970	-240.699572	21.111394	83.802737	-442.108167	21.107193	83.954790	-43.959609	
252	1.2600	527.930548	1311.695840	-96.057476	533.499314	1283.198172	-410.180026	506.695770	1321.932753	-246.235489	493.630200	1186.430473	-246.608878	506.565199	1073.916102	23.047805	691.082335	911.271417	-32.862059	457.646708	1028.484554	-519.333720	672.187608	909.024668	-462.151920	26.516873	1131.308403	-234.121908	161.539985	1126.229388	-381.479459	179.429668	1118.821193	-93.173431	201.406596	1064.313821	-363.428441	219.220823	1061.316070	-114.003670	61.073808	1158.201917	-174.275783	53.778909	1168.511947	-284.433190	148.396064	974.763629	-52.695791	121.380890	1003.699107	-429.522782	237.802503	867.482510	-69.908779	306.619070	816.064946	-85.265605	335.989982	732.681650	-97.388196	328.859889	834.487806	-108.360914	367.017985	635.926393	-135.048232	335.843191	624.668402	-230.533162	278.347352	587.177271	-95.408134	221.636463	517.502668	-102.298708	139.945515	486.548197	-92.491833	235.735678	499.516875	-134.606240	58.203931	426.088532	-84.693039	57.497893	435.627427	-163.857485	-34.963634	419.013082	-118.953627	212.145180	326.052422	-127.824015	131.099516	336.716050	-60.517223	229.623986	916.564500	-425.133335	310.796470	891.036940	-416.837791	329.938077	919.802627	-400.933495	370.893631	823.633309	-411.747776	441.888394	747.175103	-390.857799	455.368399	733.551989	-292.515060	355.136171	391.027772	-409.829124	370.095646	401.717953	-334.831593	284.498517	349.654898	-374.922478	454.940052	312.456085	-434.096142	418.406539	649.972844	-416.612477	421.087875	563.042696	-409.861603	378.207993	485.161217	-412.182958	444.417698	559.217147	-378.245129	544.226960	333.142648	-363.773374	-64.783015	852.422151	-240.705706	21.133839	83.888664	-442.039760	21.097849	83.955697	-43.960483	
253	1.2650	527.964866	1311.659174	-96.016165	533.520716	1283.194792	-410.159550	506.688060	1321.946598	-246.274006	493.667989	1186.419716	-246.616554	506.615815	1073.894450	23.088732	691.104382	911.232514	-32.874931	457.653668	1028.500419	-519.335878	672.170968	908.998368	-462.115756	26.546892	1131.297812	-234.106414	161.569553	1126.236597	-381.475717	179.458338	1118.820462	-93.172247	201.435412	1064.283884	-363.378977	219.233080	1061.259081	-113.993664	61.130802	1158.186674	-174.266874	53.779309	1168.524072	-284.411605	148.381053	974.751075	-52.685217	121.407235	1003.719689	-429.516170	237.808880	867.473844	-69.908001	306.637440	816.043771	-85.263516	335.973125	732.664092	-97.377027	328.843537	834.486811	-108.338041	367.016554	635.903561	-135.051029	335.854282	624.646215	-230.516981	278.349600	587.167950	-95.399050	221.658941	517.504190	-102.300449	139.946359	486.536377	-92.497090	235.736010	499.501870	-134.617275	58.189552	426.088560	-84.677971	57.497896	435.627427	-163.857485	-34.966335	419.001824	-118.968364	212.153962	326.040200	-127.832253	131.100900	336.716031	-60.527453	229.639245	916.588356	-425.105043	310.814025	891.084962	-416.844606	329.951792	919.839959	-400.945390	370.916673	823.666816	-411.748393	441.921658	747.222466	-390.858035	455.409261	733.591114	-292.514051	355.166278	391.063288	-409.816188	370.122478	401.761063	-334.838114	284.526138	349.712876	-374.925089	454.948451	312.465074	-434.103260	418.446624	650.013344	-416.627310	421.108574	563.078814	-409.869553	378.243470	485.220180	-412.198136	444.459554	559.348473	-378.289610	544.256552	333.101986	-363.763715	-64.799341	852.422712	-240.699377	21.121352	83.887874	-442.029670	21.103903	83.932733	-43.947620	
